<svg width="25" height="25" viewBox="0 0 25 25" fill="none" xmlns="http://www.w3.org/2000/svg">
<rect x="0.538462" y="0.538462" width="23.3333" height="23.3333" rx="11.6667" stroke="#19707D" stroke-width="1.07692"/>
<path d="M12.9198 18.1539H11.3633V9.0505H12.9198V18.1539ZM11.2371 6.63584C11.2371 6.38344 11.3128 6.1703 11.4642 5.99642C11.6213 5.82254 11.8513 5.7356 12.1541 5.7356C12.457 5.7356 12.687 5.82254 12.8441 5.99642C13.0011 6.1703 13.0796 6.38344 13.0796 6.63584C13.0796 6.88824 13.0011 7.09858 12.8441 7.26685C12.687 7.43512 12.457 7.51925 12.1541 7.51925C11.8513 7.51925 11.6213 7.43512 11.4642 7.26685C11.3128 7.09858 11.2371 6.88824 11.2371 6.63584Z" fill="#19707D"/>
</svg>
