<svg width="25" height="25" viewBox="0 0 25 25" fill="none" xmlns="http://www.w3.org/2000/svg">
<rect x="1.12831" y="0.538462" width="23.3333" height="23.3333" rx="11.6667" stroke="#19707D" stroke-width="1.07692"/>
<path d="M16.5664 12.3088L12.5958 16.2413L8.62522 12.3088C8.36332 12.054 8.15703 11.7476 8.01933 11.4091C7.88163 11.0706 7.81551 10.7073 7.82514 10.342C7.83476 9.9767 7.91991 9.61735 8.07524 9.28657C8.23057 8.9558 8.4527 8.66076 8.72765 8.42005C9.0026 8.17934 9.32441 7.99817 9.67282 7.88794C10.0212 7.77771 10.3887 7.74082 10.7521 7.77958C11.1154 7.81834 11.4668 7.93192 11.7842 8.11317C12.1015 8.29441 12.3778 8.53939 12.5958 8.83269C12.8147 8.54152 13.0914 8.29868 13.4085 8.11936C13.7256 7.94004 14.0763 7.8281 14.4387 7.79055C14.801 7.753 15.1672 7.79065 15.5143 7.90113C15.8615 8.01162 16.1821 8.19256 16.456 8.43264C16.73 8.67273 16.9515 8.96678 17.1066 9.2964C17.2617 9.62601 17.3471 9.9841 17.3575 10.3482C17.3679 10.7124 17.3029 11.0747 17.1668 11.4126C17.0307 11.7505 16.8263 12.0567 16.5664 12.312" stroke="#19707D" stroke-width="1.07692" stroke-linecap="round" stroke-linejoin="round"/>
</svg>
