<svg width="2014" height="530" viewBox="0 0 2014 530" fill="none" xmlns="http://www.w3.org/2000/svg">
<path d="M1861.2 237.209L1987.78 283.644C2003.53 289.423 2014 304.418 2014 321.197V428.84C2014 450.931 1996.09 468.84 1974 468.84H1792.4C1785.9 468.84 1779.49 470.424 1773.74 473.457L1675.26 525.383C1669.51 528.415 1663.1 530 1656.6 530H1361.64C1352.8 530 1344.2 527.071 1337.2 521.671L1279.52 477.169C1272.52 471.769 1263.93 468.84 1255.08 468.84H1040.05C1034.69 468.84 1029.38 469.916 1024.45 472.006L897.326 525.834C892.392 527.923 887.088 529 881.729 529H705.36C695.739 529 686.44 525.532 679.169 519.233L632.274 478.607C625.003 472.307 615.704 468.84 606.083 468.84H237.527C228.957 468.84 220.614 466.087 213.726 460.988L77.905 360.432C71.0172 355.333 62.6738 352.58 54.1039 352.58H40C17.9086 352.58 0 334.672 0 312.58V212.26C0 190.168 17.9086 172.26 40 172.26H48.1001C60.2369 172.26 71.7173 166.749 79.309 157.28L192.991 15.4798C200.582 6.01041 212.063 0.5 224.199 0.5H640.95C661.437 0.5 678.612 15.979 680.735 36.3557L686.708 93.6963C688.831 114.073 706.006 129.552 726.493 129.552H919.365C926.334 129.552 933.182 127.731 939.23 124.271L1087.77 39.2813C1093.82 35.8206 1100.67 34 1107.63 34H1314L1722.33 43.9362C1736.66 44.2849 1749.71 52.2757 1756.53 64.8821L1839.8 218.699C1844.44 227.27 1852.05 233.852 1861.2 237.209Z" fill="#2A8086"/>
</svg>
