<svg width="1121" height="291" viewBox="0 0 1121 291" fill="none" xmlns="http://www.w3.org/2000/svg">
<path d="M71.192 79.7306L6.76936 142.148C2.44247 146.341 0 152.108 0 158.133V224.142C0 236.434 9.96443 246.398 22.2562 246.398H61.0228H248.435H414.678H542.618C545.142 246.398 547.647 246.828 550.027 247.668L621.888 273.038C624.268 273.879 626.773 274.308 629.297 274.308H732.968C735.265 274.308 737.548 273.952 739.736 273.254L874.594 230.204C876.782 229.505 879.065 229.15 881.362 229.15H1022.67H1078.74C1086.43 229.15 1093.58 225.177 1097.64 218.643L1117.25 187.107C1119.44 183.58 1120.6 179.51 1120.6 175.357V103.636C1120.6 91.344 1110.64 81.3795 1098.34 81.3795H1090.5C1085.73 81.3795 1081.09 79.8481 1077.25 77.0107L1002.24 21.4755C998.067 18.3843 992.942 16.8511 987.755 17.1416L886.621 22.8043C881.013 23.1184 875.731 25.5415 871.834 29.5876L808.183 95.6839C803.988 100.04 798.2 102.502 792.152 102.502H743.479C738.894 102.502 734.422 101.086 730.672 98.4482L678.399 61.6706C674.65 59.0326 670.177 57.6168 665.593 57.6168H554.39C549.244 57.6168 544.257 59.4003 540.277 62.6637L462.438 126.498C458.459 129.762 453.471 131.545 448.325 131.545H348.575C343.77 131.545 339.093 129.99 335.245 127.112L269.435 77.892C265.587 75.0139 260.911 73.4586 256.105 73.4586H86.6788C80.8979 73.4586 75.3438 75.708 71.192 79.7306Z" fill="#2A8086"/>
<path d="M71.192 96.4227L6.76936 158.841C2.44247 163.033 0 168.8 0 174.825V240.834C0 253.126 9.96443 263.09 22.2562 263.09H61.0228H248.435H414.678H542.618C545.142 263.09 547.647 263.52 550.027 264.36L621.888 289.73C624.268 290.571 626.773 291 629.297 291H732.968C735.265 291 737.548 290.644 739.736 289.946L874.594 246.896C876.782 246.197 879.065 245.842 881.362 245.842H1022.67H1079.6C1087.43 245.842 1094.68 241.729 1098.7 235.011L1117.44 203.68C1119.51 200.227 1120.6 196.278 1120.6 192.255V120.328C1120.6 108.036 1110.64 98.0717 1098.34 98.0717H1090.5C1085.73 98.0717 1081.09 96.5402 1077.25 93.7029L1002.24 38.1677C998.067 35.0765 992.942 33.5433 987.755 33.8337L886.621 39.4965C881.013 39.8105 875.731 42.2336 871.834 46.2797L808.183 112.376C803.988 116.733 798.2 119.194 792.152 119.194H743.479C738.894 119.194 734.422 117.778 730.672 115.14L678.399 78.3627C674.65 75.7247 670.177 74.3089 665.593 74.3089H554.39C549.244 74.3089 544.257 76.0924 540.277 79.3559L462.438 143.19C458.459 146.454 453.471 148.237 448.325 148.237H348.575C343.77 148.237 339.093 146.682 335.245 143.804L269.435 94.5841C265.587 91.706 260.911 90.1507 256.105 90.1507H86.6788C80.8979 90.1507 75.3438 92.4001 71.192 96.4227Z" fill="#2A808D" fill-opacity="0.3"/>
<path d="M71.3182 58.4132L7.37181 115.935C2.67957 120.156 0 126.171 0 132.482V191.01C0 203.302 9.96443 213.266 22.2562 213.266H56.6419C59.5347 213.266 62.3998 212.702 65.0769 211.606L170.693 168.351C173.37 167.255 176.235 166.691 179.128 166.691H346.132C351.012 166.691 355.756 168.294 359.635 171.255L408.697 208.702C412.576 211.662 417.321 213.266 422.201 213.266H540.362C544.336 213.266 548.237 214.33 551.66 216.347L620.255 256.761C623.678 258.778 627.579 259.841 631.552 259.841H732.012C734.932 259.841 737.822 259.267 740.52 258.151L801.617 232.877L875.169 213.967C876.98 213.501 878.842 213.266 880.711 213.266H988.87C993.371 213.266 997.767 211.901 1001.48 209.351L1077.46 157.123C1081.17 154.573 1085.56 153.208 1090.07 153.208H1098.34C1110.64 153.208 1120.6 143.244 1120.6 130.952V82.3139C1120.6 70.0221 1110.64 60.0577 1098.34 60.0577H1090.07C1085.56 60.0577 1081.17 58.6926 1077.46 56.1426L1002 4.277C997.968 1.5033 993.131 0.137777 988.241 0.391987L886.201 5.69659C880.845 5.97502 875.77 8.178 871.909 11.9003L808.083 73.4346C803.935 77.4337 798.398 79.6683 792.636 79.6683H743.059C738.736 79.6683 734.507 78.4094 730.888 76.0453L678.184 41.6187C674.565 39.2546 670.335 37.9957 666.013 37.9957H553.94C549.069 37.9957 544.333 39.5935 540.457 42.5442L462.258 102.084C458.383 105.035 453.646 106.633 448.776 106.633H348.142C343.605 106.633 339.175 105.246 335.448 102.658L269.232 56.6787C265.505 54.0907 261.076 52.7037 256.538 52.7037H86.2026C80.7064 52.7037 75.4045 54.7374 71.3182 58.4132Z" fill="#2A808D" fill-opacity="0.3"/>
<path d="M21.5453 47.5563H16.9336L18.9101 66.8817L19.3493 82.2542H24.6198L22.4238 66.8817L21.5453 47.5563Z" fill="#216E7A"/>
<path d="M23.9811 84.8896H20.2755C20.0152 84.8896 19.8121 85.1147 19.8386 85.3735L21.7655 104.215L22.1926 119.161C22.1993 119.399 22.3939 119.588 22.6316 119.588H26.9689C27.2362 119.588 27.4415 119.351 27.4037 119.086L25.2792 104.215L24.4199 85.3089C24.4092 85.0743 24.2159 84.8896 23.9811 84.8896Z" fill="#216E7A"/>
<path d="M32.9553 98.0659L28.7283 98.0659C28.47 98.0659 28.2675 98.2878 28.2909 98.545L29.2017 108.542L29.2017 117.562C29.2017 117.823 29.428 118.026 29.6876 117.998L34.1915 117.517C34.4419 117.49 34.6186 117.259 34.5784 117.01L33.1907 108.427C33.1865 108.401 33.1846 108.374 33.1852 108.348L33.3944 98.5145C33.3997 98.2683 33.2015 98.0659 32.9553 98.0659Z" fill="#216E7A"/>
<path d="M26.8346 122.223H23.129C22.8688 122.223 22.6656 122.448 22.6921 122.707L24.6153 141.512C24.6178 141.536 24.6183 141.56 24.6167 141.585L24.21 147.888C24.1937 148.142 24.3946 148.356 24.6483 148.356H28.918C29.1941 148.356 29.4017 148.104 29.3492 147.833L28.1389 141.58C28.1348 141.559 28.1323 141.537 28.1313 141.516L27.2734 122.642C27.2627 122.407 27.0694 122.223 26.8346 122.223Z" fill="#216E7A"/>
<path d="M14.3859 130.299C16.9414 128.775 20.604 123.67 20.8708 119.806C20.8876 119.564 20.6929 119.413 20.4901 119.546C18.896 120.592 13.9716 126.03 13.8406 129.977C13.8308 130.272 14.1326 130.45 14.3859 130.299Z" fill="#216E7A"/>
<path d="M12.6812 115.714C13.6213 118.439 17.2578 118.89 19.7905 118.779C19.9544 118.772 20.1135 118.668 20.1051 118.505C20.0393 117.218 15.8375 115.438 13.0763 115.218C12.7999 115.196 12.5908 115.451 12.6812 115.714Z" fill="#216E7A"/>
<path d="M26.9497 92.5736C30.1362 91.889 35.5526 87.9527 36.831 84.2519C36.9102 84.0227 36.7626 83.8168 36.5278 83.8773C34.5688 84.3824 27.6356 88.291 26.5189 92.1173C26.4393 92.3903 26.6716 92.6334 26.9497 92.5736Z" fill="#216E7A"/>
<path d="M70.9361 104.347C69.0142 106.979 63.2147 110.325 59.314 109.987C59.0723 109.967 58.9443 109.748 59.0952 109.558C60.3536 107.974 66.745 103.231 70.6945 103.768C70.9763 103.806 71.1038 104.117 70.9361 104.347Z" fill="#216E7A"/>
<path d="M76.4843 58.5033C73.057 61.5844 63.8315 64.4025 58.8418 62.4789C58.6155 62.3916 58.5395 62.1413 58.7226 61.9823C60.6748 60.2879 71.4469 55.5451 76.3954 57.8718C76.6477 57.9904 76.6916 58.3169 76.4843 58.5033Z" fill="#216E7A"/>
<path d="M62.2767 48.5533C62.5018 52.1581 59.9398 59.0304 56.4576 61.2476C56.253 61.3779 56.0131 61.2861 56.0064 61.0436C55.9464 58.8759 58.0572 50.2894 61.7311 48.2474C61.9745 48.1121 62.2593 48.2753 62.2767 48.5533Z" fill="#216E7A"/>
<path d="M68.7826 72.5509C67.1378 69.0744 61.7076 64.1649 57.9987 64.1396C57.7561 64.1379 57.6004 64.3493 57.7107 64.5653C58.737 66.5741 64.741 73.3615 68.4928 73.081C68.7545 73.0614 68.8949 72.7881 68.7826 72.5509Z" fill="#216E7A"/>
<path d="M42.5221 46.9423L37.918 46.6779L38.783 66.0848L38.3399 81.4572L43.6018 81.7595L42.2909 66.2863L42.5221 46.9423Z" fill="#216E7A"/>
<path d="M56.0004 34.6859L51.4492 33.9407L50.2769 53.3315L48.2263 68.573L53.4276 69.4246L53.7445 53.8993L56.0004 34.6859Z" fill="#216E7A"/>
<path d="M61.2435 75.4593L55.2969 74.3484L53.6944 93.7224L50.9588 108.861L57.7549 110.13L58.2251 94.5688L61.2435 75.4593Z" fill="#216E7A"/>
<path d="M42.8121 84.3539L39.1126 84.1414C38.8528 84.1265 38.637 84.3395 38.6486 84.5995L39.4919 103.521L39.0612 118.466C39.0543 118.704 39.2377 118.904 39.475 118.917L43.8052 119.166C44.0721 119.181 44.2906 118.957 44.268 118.691L42.9999 103.722L43.2261 84.7977C43.2289 84.5629 43.0465 84.3674 42.8121 84.3539Z" fill="#216E7A"/>
<path d="M52.3713 71.922L48.7144 71.3232C48.4576 71.2812 48.2207 71.4704 48.205 71.7302L47.0621 90.6355L45.0684 105.454C45.0367 105.689 45.1981 105.907 45.4327 105.946L49.713 106.647C49.9768 106.69 50.2177 106.49 50.2231 106.222L50.5296 91.2032L52.7366 72.4067C52.764 72.1735 52.6031 71.96 52.3713 71.922Z" fill="#216E7A"/>
<path d="M56.4988 112.578L51.4524 111.636C51.1912 111.587 50.9396 111.778 50.9178 112.042L49.3565 130.917L46.6572 146.872C46.6155 147.119 46.79 147.344 47.0404 147.367L52.6956 147.874C52.951 147.897 53.1784 147.7 53.1897 147.446L53.8873 131.764L56.8411 113.062C56.8773 112.833 56.7272 112.621 56.4988 112.578Z" fill="#216E7A"/>
<path d="M43.5292 121.79L39.8228 121.577C39.5633 121.562 39.3476 121.774 39.3588 122.034L39.9915 136.685C39.9924 136.706 39.9918 136.727 39.9896 136.748L38.9396 147.039C38.9149 147.281 39.0916 147.497 39.3337 147.521L44.9605 148.071C45.2417 148.099 45.4753 147.858 45.4388 147.578L43.9829 136.42L43.9432 122.227C43.9426 121.995 43.7611 121.803 43.5292 121.79Z" fill="#216E7A"/>
<path d="M31.354 71.8282C30.1953 75.2689 33.7921 79.0557 36.5689 81.2458C36.6946 81.345 36.8758 81.3739 36.9815 81.2536C38.0159 80.0769 34.7887 74.3689 31.9899 71.6831C31.7823 71.4838 31.4459 71.5555 31.354 71.8282Z" fill="#216E7A"/>
<path d="M65.731 121.363C62.3996 121.13 60.22 116.627 59.1687 113.4C59.1196 113.249 59.154 113.069 59.3042 113.018C60.6639 112.562 64.6094 117.398 66.0957 120.822C66.2118 121.09 66.0218 121.383 65.731 121.363Z" fill="#216E7A"/>
<path d="M33.9924 119.789L29.7654 119.789C29.5071 119.789 29.3046 120.011 29.328 120.268L30.2388 130.265L30.2388 147.648C30.2388 147.909 30.4651 148.112 30.7247 148.084L35.2625 147.6C35.4998 147.574 35.6735 147.364 35.6535 147.126L34.2215 130.11L34.4315 120.237C34.4368 119.991 34.2386 119.789 33.9924 119.789Z" fill="#216E7A"/>
<path d="M613.998 186.117C614.688 175.911 605.604 160.798 602.591 160.245C602.591 160.245 585.899 186.117 578.109 201.697C578.354 204.114 579.368 205.392 579.222 207.817C579.072 210.321 576.076 211.735 577.275 213.938C578.59 216.354 584.23 215.051 584.23 215.051C592.019 213.66 592.576 202.253 593.41 201.975C594.802 203.923 596.272 210.043 595.636 212.269C595.08 214.216 593.334 215.18 593.967 216.998C594.671 219.022 596.749 219.78 598.696 219.78C603.426 220.058 607.321 216.442 609.825 213.103C614.554 205.87 614.554 193.351 613.998 186.117Z" fill="#0A5D69"/>
<rect x="542.496" y="151.342" width="68.4379" height="51.1893" rx="25.5946" fill="#F3F6F7"/>
<path d="M568.883 201.697C574.169 186.118 570.831 159.41 558.312 153.568C553.674 153.755 546.627 158.019 546.627 158.019C546.627 158.019 530.505 177.449 528.822 192.516C529.1 198.359 532.439 207.817 531.326 215.885C529.935 217.215 529.657 217.554 528.822 218.946C527.709 221.171 530.769 222.562 532.995 222.562C535.777 222.562 539.325 221.538 542.176 218.946C545.864 215.592 545.514 211.156 546.627 206.983C548.574 209.487 548.296 218.946 546.905 221.171C544.958 224.51 545.236 225.622 546.627 227.013C550.522 229.146 558.033 227.013 561.372 222.562C566.101 215.051 566.499 210.321 568.883 201.697Z" fill="#0A5D69"/>
<circle cx="527.75" cy="152.733" r="7.51147" fill="#0A5D69"/>
<circle cx="550.562" cy="149.395" r="7.51147" fill="#0A5D69"/>
<rect x="520.238" y="146.891" width="43.956" height="39.5048" rx="19.7524" fill="#F3F6F7"/>
<ellipse cx="550.636" cy="163.362" rx="4.92901" ry="6.4558" transform="rotate(-31.8762 550.636 163.362)" fill="#0A5D69"/>
<ellipse cx="4.92901" cy="6.4558" rx="4.92901" ry="6.4558" transform="matrix(-0.978754 -0.205037 -0.205037 0.978754 538.1 163.379)" fill="#0A5D69"/>
<path d="M538.877 173.598C539.285 175.668 543.05 176.659 543.607 176.659C544.163 176.659 547.771 173.537 546.667 171.373C545.554 169.425 538.599 171.095 538.877 173.598Z" fill="#0A5D69"/>
<ellipse cx="533.315" cy="167.478" rx="1.39101" ry="1.66922" fill="#F3F6F7"/>
<ellipse cx="548.338" cy="163.027" rx="1.39101" ry="1.66922" fill="#F3F6F7"/>
<path d="M581.545 96.2581H575.703L578.207 120.74L578.763 140.214H585.44L582.658 120.74L581.545 96.2581Z" fill="#216E7A"/>
<path d="M584.631 143.552H579.937C579.607 143.552 579.349 143.838 579.383 144.166L581.824 168.034L582.365 186.968C582.374 187.269 582.62 187.509 582.921 187.509H588.416C588.754 187.509 589.015 187.209 588.967 186.873L586.275 168.034L585.187 144.084C585.173 143.786 584.928 143.552 584.631 143.552Z" fill="#216E7A"/>
<path d="M596 160.245L590.646 160.245C590.318 160.245 590.062 160.526 590.092 160.852L591.245 173.516L591.245 184.942C591.245 185.273 591.532 185.53 591.861 185.495L597.566 184.886C597.884 184.852 598.108 184.559 598.057 184.244L596.299 173.37C596.293 173.337 596.291 173.303 596.292 173.27L596.557 160.813C596.563 160.501 596.312 160.245 596 160.245Z" fill="#216E7A"/>
<path d="M588.248 190.847H583.554C583.224 190.847 582.967 191.132 583 191.46L585.437 215.283C585.44 215.313 585.44 215.344 585.438 215.375L584.923 223.361C584.902 223.682 585.157 223.953 585.478 223.953H590.887C591.237 223.953 591.5 223.634 591.434 223.291L589.9 215.369C589.895 215.342 589.892 215.315 589.891 215.288L588.804 191.378C588.79 191.081 588.546 190.847 588.248 190.847Z" fill="#216E7A"/>
<path d="M572.475 201.078C575.713 199.147 580.353 192.68 580.691 187.786C580.712 187.479 580.465 187.287 580.208 187.456C578.189 188.78 571.951 195.67 571.785 200.67C571.772 201.044 572.155 201.269 572.475 201.078Z" fill="#216E7A"/>
<path d="M570.317 182.601C571.508 186.053 576.115 186.625 579.324 186.484C579.531 186.475 579.733 186.344 579.722 186.137C579.639 184.506 574.316 182.252 570.818 181.973C570.468 181.945 570.203 182.269 570.317 182.601Z" fill="#216E7A"/>
<path d="M588.392 153.287C592.429 152.42 599.29 147.433 600.91 142.745C601.01 142.454 600.823 142.194 600.526 142.27C598.044 142.91 589.261 147.862 587.846 152.709C587.745 153.055 588.04 153.363 588.392 153.287Z" fill="#216E7A"/>
<path d="M644.114 168.201C641.68 171.536 634.333 175.775 629.391 175.347C629.085 175.32 628.923 175.044 629.114 174.803C630.708 172.796 638.805 166.788 643.808 167.468C644.165 167.516 644.327 167.91 644.114 168.201Z" fill="#216E7A"/>
<path d="M651.144 110.126C646.802 114.029 635.115 117.599 628.794 115.162C628.507 115.052 628.411 114.735 628.643 114.533C631.116 112.387 644.763 106.378 651.031 109.326C651.351 109.476 651.407 109.89 651.144 110.126Z" fill="#216E7A"/>
<path d="M633.144 97.5211C633.429 102.088 630.184 110.794 625.773 113.602C625.513 113.768 625.209 113.651 625.201 113.344C625.125 110.598 627.799 99.7205 632.453 97.1336C632.761 96.9622 633.122 97.169 633.144 97.5211Z" fill="#216E7A"/>
<path d="M641.386 127.922C639.302 123.518 632.423 117.298 627.725 117.266C627.418 117.264 627.22 117.532 627.36 117.805C628.66 120.35 636.266 128.949 641.019 128.593C641.35 128.568 641.528 128.222 641.386 127.922Z" fill="#216E7A"/>
<path d="M608.122 95.4803L602.289 95.1453L603.385 119.73L602.824 139.204L609.489 139.587L607.829 119.986L608.122 95.4803Z" fill="#216E7A"/>
<path d="M625.195 79.9536L619.43 79.0095L617.945 103.574L615.347 122.882L621.936 123.961L622.337 104.293L625.195 79.9536Z" fill="#216E7A"/>
<path d="M631.836 131.606L624.303 130.199L622.273 154.742L618.807 173.919L627.417 175.528L628.012 155.814L631.836 131.606Z" fill="#216E7A"/>
<path d="M608.487 142.874L603.801 142.605C603.472 142.586 603.198 142.856 603.213 143.185L604.281 167.154L603.736 186.088C603.727 186.389 603.959 186.642 604.26 186.66L609.745 186.975C610.084 186.994 610.36 186.71 610.332 186.372L608.725 167.41L609.012 143.436C609.015 143.139 608.784 142.891 608.487 142.874Z" fill="#216E7A"/>
<path d="M620.596 127.125L615.964 126.366C615.638 126.313 615.338 126.553 615.318 126.882L613.87 150.832L611.345 169.604C611.305 169.902 611.509 170.178 611.806 170.227L617.229 171.115C617.563 171.17 617.868 170.916 617.875 170.577L618.263 151.551L621.059 127.739C621.094 127.444 620.89 127.173 620.596 127.125Z" fill="#216E7A"/>
<path d="M625.825 178.629L619.432 177.435C619.101 177.373 618.782 177.615 618.754 177.949L616.777 201.861L613.357 222.073C613.304 222.386 613.525 222.671 613.843 222.7L621.007 223.343C621.33 223.372 621.618 223.122 621.633 222.8L622.516 202.934L626.258 179.242C626.304 178.952 626.114 178.683 625.825 178.629Z" fill="#216E7A"/>
<path d="M609.394 190.298L604.698 190.028C604.369 190.01 604.096 190.279 604.111 190.608L604.912 209.168C604.913 209.195 604.912 209.222 604.91 209.248L603.579 222.284C603.548 222.591 603.772 222.865 604.079 222.895L611.207 223.593C611.563 223.627 611.859 223.322 611.813 222.967L609.968 208.833L609.918 190.852C609.917 190.558 609.687 190.315 609.394 190.298Z" fill="#216E7A"/>
<path d="M593.97 127.006C592.502 131.365 597.059 136.162 600.577 138.937C600.736 139.062 600.966 139.099 601.099 138.947C602.41 137.456 598.322 130.225 594.776 126.822C594.513 126.57 594.087 126.661 593.97 127.006Z" fill="#216E7A"/>
<path d="M637.52 189.757C633.3 189.463 630.539 183.758 629.207 179.67C629.145 179.479 629.188 179.251 629.379 179.187C631.101 178.609 636.099 184.735 637.982 189.073C638.13 189.412 637.889 189.783 637.52 189.757Z" fill="#216E7A"/>
<path d="M597.313 187.764L591.958 187.764C591.631 187.764 591.374 188.045 591.404 188.371L592.558 201.035L592.558 223.056C592.558 223.387 592.845 223.644 593.173 223.609L598.922 222.995C599.223 222.963 599.443 222.696 599.417 222.395L597.603 200.839L597.869 188.332C597.876 188.02 597.625 187.764 597.313 187.764Z" fill="#216E7A"/>
<circle cx="946.482" cy="224.35" r="36.203" fill="#216E7A"/>
<circle cx="946.482" cy="199.23" r="36.203" fill="#216E7A"/>
<rect x="940.59" y="225.33" width="8.41929" height="65.6705" rx="4.20965" fill="#1D6874"/>
<circle cx="191.996" cy="96.9335" r="36.203" fill="#216E7A"/>
<circle cx="191.996" cy="71.8129" r="36.203" fill="#216E7A"/>
<rect x="186.104" y="97.9128" width="8.41929" height="65.6705" rx="4.20965" fill="#1D6874"/>
<circle cx="375.962" cy="111.121" r="24.8699" fill="#216E7A"/>
<circle cx="375.962" cy="93.8641" r="24.8699" fill="#216E7A"/>
<rect x="371.914" y="111.793" width="5.78369" height="45.1128" rx="2.89184" fill="#1D6874"/>
</svg>
